			<svg version="1.1" id="pOff" xmlns="http://www.w3.org/2000/svg" xmlns:xlink="http://www.w3.org/1999/xlink" x="0px" y="0px" viewBox="0 0 800 600" enable-background="new 0 0 800 600" xml:space="preserve">
			<g class="power-off">
			  <g>
			    <path d="M371.7,362.5c4.1-8.5,6.7-17.8,7.4-27.6h-21.9c-0.6,5.9-2.3,11.4-4.6,16.6L371.7,362.5z"/>
			    <path d="M347.3,360.9c-3.4,4.7-7.5,8.8-12.2,12.2l11,19c7.9-5.4,14.8-12.3,20.2-20.2L347.3,360.9z"/>
			    <path d="M325.8,378.6c-5.2,2.4-10.8,3.8-16.7,4.4v21.9c9.9-0.7,19.2-3.3,27.6-7.4L325.8,378.6z"/>
			    <path d="M298.3,383c-27.2-2.8-48.6-25.5-48.6-53.5c0-18,8.9-33.9,22.5-43.7l-10.9-18.9c-20,13.6-33.2,36.6-33.2,62.6
			      c0,39.9,31,72.6,70.2,75.4L298.3,383L298.3,383z"/>
			  </g>
			  <path d="M357.4,324.1H379c-0.7-9.8-3.2-19.1-7.4-27.6l-18.8,10.9C355.2,312.6,356.8,318.2,357.4,324.1z"/>
			  <path d="M347.4,298.1l18.9-10.9c-5.4-8-12.2-14.9-20.2-20.3l-10.9,18.9C339.9,289.2,344,293.4,347.4,298.1z"/>
			  <rect x="292.9" y="243.1" width="21.6" height="64.8"/>
			</g>
		</svg>