 <svg version="1.1" id="sett" xmlns="http://www.w3.org/2000/svg" xmlns:xlink="http://www.w3.org/1999/xlink" xml:space="preserve">
								<g>
							  <path d="M519.1,105.8H271.9c-6.9,0-17.1,10.1-17.1,17.1v238.7c0,6.9,10.1,17.1,17.1,17.1h247.1c6.9,0,17.1-10.1,17.1-17.1V122.8
							    C536.1,115.9,526.2,105.8,519.1,105.8z M527.7,361.5c0,2.4-6.2,8.4-8.4,8.4H271.9c-2.4,0-8.4-6.2-8.4-8.4V122.8
							    c0-2.4,6.2-8.4,8.4-8.4h247.1c2.4,0,8.4,6.2,8.4,8.4v238.7H527.7z"/>
							</g>
							<path d="M323.7,346.5L323.7,346.5c-2.6,0-4.7-2.1-4.7-4.7V142.5c0-2.6,2.1-4.7,4.7-4.7h0c2.6,0,4.7,2.1,4.7,4.7v199.3
							  C328.3,344.4,326.2,346.5,323.7,346.5z"/>
							<path d="M400,347.5L400,347.5c-2.6,0-4.7-2.1-4.7-4.7V143.5c0-2.6,2.1-4.7,4.7-4.7l0,0c2.6,0,4.7,2.1,4.7,4.7v199.3
							  C404.7,345.4,402.6,347.5,400,347.5z"/>
							<path d="M400,347.5L400,347.5c-2.6,0-4.7-2.1-4.7-4.7V143.5c0-2.6,2.1-4.7,4.7-4.7l0,0c2.6,0,4.7,2.1,4.7,4.7v199.3
							  C404.7,345.4,402.6,347.5,400,347.5z"/>
							<path d="M476.2,348L476.2,348c-2.6,0-4.7-2.1-4.7-4.7V144c0-2.6,2.1-4.7,4.7-4.7h0c2.6,0,4.7,2.1,4.7,4.7v199.3
							  C480.8,345.9,478.7,348,476.2,348z"/>
							<path d="M476.2,348L476.2,348c-2.6,0-4.7-2.1-4.7-4.7V144c0-2.6,2.1-4.7,4.7-4.7h0c2.6,0,4.7,2.1,4.7,4.7v199.3
							  C480.8,345.9,478.7,348,476.2,348z"/>
</svg>
